<svg 
  xmlns="http://www.w3.org/2000/svg" 
  width="24" 
  height="24" 
  viewBox="0 0 24 24" 
  fill="none" 
  stroke-width="2" 
  stroke-linecap="round" 
  stroke-linejoin="round" 
  class="lucide lucide-eye"
>
  <style>
    path {
      stroke: oklch(0.279 0.041 260.031);
    }
    @media (prefers-color-scheme: dark) {
      path {
        stroke: oklch(0.984 0.003 247.858);
      }
    }
  </style>
  <path d="M19 7V4a1 1 0 0 0-1-1H5a2 2 0 0 0 0 4h15a1 1 0 0 1 1 1v4h-3a2 2 0 0 0 0 4h3a1 1 0 0 0 1-1v-2a1 1 0 0 0-1-1"/>
  <path d="M3 5v14a2 2 0 0 0 2 2h15a1 1 0 0 0 1-1v-4"/>
</svg>